<svg version="1" xmlns="http://www.w3.org/2000/svg" width="400" height="400" viewBox="0 0 300.000000 300.000000"><path d="M145 15c-.8.5-3.5 1-6 1s-6.3.5-8.5 1c-3 .7-4.7.5-6.8-.5-2.5-1.3-3.4-1.2-7 .1-2.3.9-7.2 2.6-11 3.9-3.7 1.3-7.4 3.1-8.3 3.9-.8.9-2.7 1.6-4.2 1.7-2.6 0-7.7 1.7-5.8 1.8.5.1.3.7-.3 1.5-.6.7-2.2 1.1-3.6.8-2-.3-2.4-.1-1.9 1.2.4 1-.1 2.5-1.1 3.6-1.5 1.6-1.5 2.2-.5 3.5 1 1.2.9 1.5-.5 1.5-1 0-2.8 1.1-4.1 2.5-1.3 1.4-3.7 2.8-5.4 3.1-2.4.5-3.2 1.3-4 4.5-.6 2.2-1.5 3.9-2 3.9s-1.2 1-1.6 2.2c-.7 2.2-.7 2.2-1.5.3-.5-1.4-.8-.7-.8 2.6-.2 10-.5 10.5-8.2 11.8-3.8.7-6.7 1.7-6.4 2.1.3.5-.4 1.4-1.5 2-1.7.9-2.1 1.9-1.9 4.9.2 2-.1 4.3-.6 5-.6 1 0 2.1 2 3.7l2.8 2.2-3.7 1.7c-4.6 2.2-6.6 5-6.6 9.3 0 4.8 2.5 8.9 6.8 11.2 4 2.2 6.1 3.5 10.5 6.3 1.5 1.1 3.4 1.6 4.2 1.3 1.7-.6 2.1 1.9.5 2.9-.5.3-1 1.5-1 2.7 0 1.8.5 2 4.5 1.6 3.3-.4 4.8-.1 5.9 1.1 1.9 2.1.3 4.3-2.3 3.3-1.3-.5-1.4-.3-.4 1 1.7 2 .5 3.1-1.4 1.2-.8-.8-1.9-1.2-2.4-.8-.6.3-2.1-.2-3.6-1.1-3.5-2.3-5.5-.5-2.7 2.6 1.9 2.2 1.9 2.2-.3 1-2.5-1.3-6.3 0-6.3 2.1 0 .6-.6.5-1.6-.3-1.5-1.2-4.2-1.3-10-.5-2.4.4-4.8-2.5-3.1-3.6.9-.6.8-.8-.1-.8-.8 0-1.6.9-1.9 2.1-.5 1.8-1.1 2-4 1.4-2.7-.5-3.3-.3-2.8.7.3.7 0 .5-.9-.6-.8-1-2-1.5-2.6-1.1-.6.4-1.1.1-.9-.6.3-2.7-.1-4-1.1-3.4-.5.3-1 .2-1-.2 0-.5-1.4-.9-3-.8-1.7 0-3 .5-3 1.2s-.7 1.3-1.5 1.3-1.5-.5-1.5-1.1c0-.6-.8-.8-1.9-.4-1.1.3-2.2.1-2.6-.4-.3-.7 0-.8.9-.5.9.3 1.6.1 1.6-.5 0-1.4-4.8-3.4-6.1-2.5-1.1.6-1.2 46.4-.1 46.5.4 0 1.9.3 3.5.5 1.6.3 2.7 0 2.7-.6s.7-.4 1.6.4c1.1 1.1 3.7 1.6 8.7 1.7 26 .6 32.1.9 32.6 1.6.3.5 3 1.4 6 1.9 4.7 1 5.2.9 3.6-.2-1.8-1.3-1.8-1.4.3-1.4 1.2 0 2.2.5 2.2 1.1 0 .8.4.8 1.3.1.7-.6 2.3-.9 3.5-.5 1.5.3 2.2.1 2.3-.8 0-.8.4-.4.9.9.5 1.2 1.6 2.2 2.5 2.2 1.1 0 1.5 1.1 1.5 4.5 0 3.3-.4 4.5-1.5 4.5-.9 0-1.2.6-.9 1.5.4.9.2 2.8-.4 4.3-2 5.3-2.2 9.1-.6 10.7.9.8 1.1 1.5.5 1.5-.6 0-1.1 1.5-1.1 3.4s-.5 3.6-1.1 3.8c-.6.2.8 1.7 3 3.3 4.4 3 8.6 10.2 7.8 13.3-.4 1.5-.5 1.5-.6-.1 0-.9-.6-1.7-1.1-1.7-.6 0-.9.3-.9.7.3 2.1-.3 2.2-3.1.8-3.2-1.6-4.2-3.2-1.4-2.1 1.4.5 1.5.4.5-.8-.7-.8-1.8-1.3-2.5-1-.6.2-2-.2-3.1-1-1.7-1.3-1.8-1.8-.7-3.5.7-1.2.8-2.1.2-2.1-.5 0-.7-.7-.4-1.5.4-.9-.7-3-2.5-5-1.7-2-3.1-4-3.1-4.5s-1.8-1.9-4-3.1c-3.3-1.8-3.7-2.5-2.5-3.2 2-1.1 8 2.4 7.9 4.6-.1 1.1.6 1.5 2.5 1.3 2.3-.2 2.6-.6 2.3-3.6-.1-1.9-.6-3.7-1-4-1.1-.8-3.4-6.2-3.7-8.7-.3-1.7.2-2.3 1.7-2.3 1.4 0 1.8-.5 1.4-1.6-.3-.9-.6-2.2-.6-3 0-.8-.7-1.4-1.6-1.4-1 0-1.4.5-1 1.5.4 1.3.2 1.3-1.4.5-3.8-2.1-15-.5-15 2.2 0 .4-.7.8-1.6.8-1.3 0-1.4-.3-.4-1.4.9-1.2.5-1.6-2.7-2.2-2.1-.5-4-.8-4.3-.7-.3 0-3.2.4-6.5.8-3.2.3-6.4.9-7 1.2-.5.4-.7.3-.3-.2 1.1-1.2-.9-4.2-3.2-4.8-1.1-.3-2-.1-2 .5 0 .5-.5.6-1.2.2-.6-.4-.9-.3-.6.2.3.5.2 1.8-.3 2.9-.6 1.7-.8 1.5-.8-1.1-.1-2.3-.7-3.3-2.1-3.7-1.1-.3-2 0-2 .5 0 .7-.5.7-1.3-.1-1-.8-1.7-.7-2.5.1-.9.9-1.2.8-1.2-.5 0-.9-.7-1.7-1.5-1.7s-1.5-.6-1.5-1.3c0-.7-.7-.4-1.5.7-1.8 2.4-1.9 6.7-.3 8.5 1.1 1.1 1.1 1.4 0 1.8-.8.3-1.2 2.6-1.1 7.1.1 5.5.2 6.2.9 3.8.5-1.6.7-3.3.4-3.8-.3-.4 0-.8.5-.8.6 0 1.1 1.8 1.1 4 0 2.9-.4 4-1.5 4-1.3 0-1.5 6-1.5 48v48h122.1c108.1 0 122-.2 121.5-1.5-.3-.8-.1-1.5.5-1.5.5 0 1.2.6 1.5 1.4.4 1.1 2.9 1.5 11 1.5l10.4.1v-2.5c0-1.4.6-2.5 1.3-2.5 2.3 0 6.7 2.5 6.7 3.7 0 1 3.2 1.3 12.5 1.3H300v-8.7c0-6.8-.4-9.1-1.7-10.6-1.7-1.9-1.7-2 0-1.4 2.5.9 2.3-3.4-.3-5-2.3-1.5-3.8.1-2 2.2.7.8.9 1.5.4 1.4-.8 0-3.6-3.2-10.5-11.8-2.1-2.6-2.5-5.1-.9-5.1.6 0 1 .7 1 1.5 0 .9.4 2.1 1 2.8 6.4 7.7 7.7 8.9 8.5 7.7.5-.9.4-1.5-.3-1.8-.7-.2-1.2-.8-1.2-1.4 0-.6 1.1-.3 2.5.6 2.8 1.8 3.5 2 3.5.7 0-1.8-3-4-4.9-3.6-1.1.2-2.2-.3-2.5-1.1-.6-1.4.5-1.9 1.7-.7.4.3 1.8.8 3.2.9l2.5.3V190l-5.2-.1c-7.8-.1-12.7.1-18.3.8-3.8.4-4.5.8-3 1.4 1.9.7 1.9.8-.2.8-1.3.1-2.3-.4-2.3-.9 0-.6-2.4-1-5.2-1-9.8 0-27.8 1.3-27.8 2 0 .9 5 3.1 5.9 2.6.4-.3 1.6.9 2.6 2.7 1 1.8 2.4 3.5 3 3.9.7.4 1.2 2 1.3 3.6 0 1.6 1 4.7 2.1 6.8 1.1 2.1 1.9 3.9 1.7 4.1-.7.7-3.6-1-3.6-2.1-.1-.6-.8-2.5-1.6-4.1-.8-1.7-1.2-2.2-1-1.3.6 2.1-1.2 3.4-2.6 2-.8-.8-.8-1.5.1-2.5 1.3-1.7.5-4.7-1.4-4.7-.7 0-1.5-.7-1.9-1.5-.3-.8-1.3-1.5-2.2-1.5-1 0-1.4-.6-1.1-1.4.7-1.8-3.8-2.7-7-1.5-1.7.6-2.1.5-1.7-.6.3-.8 1.8-1.8 3.2-2.3 2.6-.9 2.5-.9-1.6-1.7-5-.8-4.8-.9-5.8 2.9-.5 2.1-.4 2.7.5 2.2 1.4-.9 1.5 1.6 0 3.1-.8.8-.8 1.7 0 3.1 1.5 2.8 1.4 3.2-.4 2.6-1.2-.5-1.5.3-1.5 3.9 0 2.5-.5 4.9-1.1 5.3-.7.4-.8 2.3-.4 5.2.6 4.3.6 4.5-1.1 3.1-1.1-.9-1.5-.9-1-.1.4.7 0 1.9-.9 2.8-1.1 1.2-1.3 2-.6 2.7.8.8.7 1.5-.3 2.6-.8.9-1.6 2.9-1.8 4.6-.1 1.6-1 3.6-1.8 4.3-1.3 1.1-1.3 1.4-.1 1.9.9.4.3 1-1.9 1.9-3.4 1.5-5.6 1-4.3-.9 1.6-2.2 1.6-6.7 0-6.7-.9 0-2.2-.3-3.1-.6-1.2-.5-1.4.1-1.1 3 .6 4.3-1.1 5.6-2.7 2.2-.6-1.4-1.5-2.6-2-2.6-1.2 0-1 .7.8 3.8l1.6 2.7-2.5-2.7c-3.1-3.3-3.6-2.8-3.2 3.5.1 2.6-.1 4.7-.7 4.7-1.3 0-3.8-6.4-3.8-9.9 0-1.6-.4-3.3-1-3.6-.5-.3-1-1.3-1-2.2 0-.9-1.1-2.6-2.5-3.9-2.3-2.1-2.6-2.2-3.2-.7-.4 1.1.3 2.5 2.4 4.2 1.6 1.4 3.3 3.9 3.6 5.6.3 1.6.9 3.8 1.2 4.7.4 1.1.3 1.8-.4 1.8-.6 0-1.1-1-1.1-2.3 0-1.7-.2-1.9-.9-.8-1.2 1.8-.4 3.7 2.6 6.7 1.7 1.7 2.2 3.1 1.8 4.4-.5 1.4-.2 2 .9 2 .9 0 1.6.7 1.6 1.7 0 1.5.1 1.5 1.8 0 1-1 2.4-1.7 3-1.7.7 0 1.2-.6 1.2-1.4 0-.8 1.1-2.7 2.4-4.3l2.4-2.8.7 3.9c1.8 9.2-1.4 23-6.5 28.7-6.5 7.2-11 11.4-14.1 12.9l-3.6 1.9-1.4-4.2c-.7-2.3-2-4.8-2.9-5.5-1.3-1.2-1.3-1.3.3-.8 1 .3 1.7 0 1.7-.9 0-.7 1.4-2.7 3-4.3 1.7-1.7 3-3.4 3-3.8 0-.4.7-1.2 1.6-1.9 1.5-1.1 1.5-1.4 0-4.3-1.5-3-1.5-3.1.1-2.5 1.6.6 1.6.5.4-1-.7-.9-1.9-1.7-2.6-1.7-.7 0-1.5-.7-1.9-1.5-.3-.9 0-1.5.8-1.5 2.2 0 1.3-5.6-1.2-8.3-1.3-1.4-2.4-4.1-2.6-6.3-.4-3.9-3.4-12.1-3.5-9.7-.1.7-.8 1-1.6.7-.9-.4-1.5 0-1.5.9s-.3 2.2-.6 3c-.3.8.3 2.2 1.2 3.2 1.7 1.7 1.7 1.7-.4 1.1-2-.7-2.1-.5-1.5 2.5.4 2.4.3 3-.6 2.5-.7-.5-1-1.3-.8-2 .3-.6-.2-1.7-.9-2.4-1.9-1.7-2.9.7-1.9 4.5.5 2.3.4 2.5-.9 1.4-.8-.7-1.9-1-2.5-.7-.5.3-1.1-.1-1.5-.9-.3-.8.2-1.9 1.1-2.3 1.1-.6 1.4-1.7 1-3.2-.4-1.6-.1-2.3 1.2-2.7.9-.2 1.7-1.3 1.8-2.4.2-1.8.1-1.8-1.5-.2s-1.7 1.5-2.3-1.3c-.3-1.6 0-3.7.7-4.8.7-1 1-2.5.7-3.4-.5-1.1-.3-1.3.7-.7.8.5 1.1.3.8-.6-.3-.8.1-2.1.9-3.1 1.2-1.3 1.2-2 .2-3.6s-1-2.3.3-3.6c.9-.9 1.8-2.1 2-2.7.3-.9.9-.9 2.5 0 1.2.6 3.1 1.1 4.3 1.1 1.1 0 2.3.7 2.6 1.5.4.8 1.3 1.5 2.1 1.5s1.9 1.4 2.5 3.1c.7 2 1.5 2.8 2.5 2.5.8-.3 1.9-.6 2.4-.6.6 0 .7-.5.4-1-.3-.6-.2-1 .4-1 .6 0 1.3-1.1 1.7-2.5.3-1.3 1.2-2.9 2-3.6 1.6-1.3 1.9-3 .5-2.7-.5.2-2.3-1.5-4-3.7-2-2.4-4.2-4.1-5.9-4.3-1.5-.2-3.4-.9-4.2-1.6-.8-.8-2.3-1.2-3.2-1.1-1 .2-2-.1-2.4-.6-.3-.5-.9-.7-1.4-.4-2.2 1.4-5.6-1.4-6.8-5.8-.9-2.9-2.1-4.9-3.3-5.2-1.4-.5-1.9-1.6-1.9-4 0-2.9.4-3.6 2.7-4.1 2.1-.6 3-.2 4.1 1.4.8 1.2 2.1 2.2 2.8 2.2.8 0 1.4.4 1.4 1 0 .5.7 1 1.5 1s1.5.5 1.5 1.1c0 .7 1.2.9 3.5.5 2.9-.6 3.4-.4 2.9.9-.7 1.7 1.6 2.1 3.2.5.6-.6 2-.4 3.9.6 7.3 3.8 7.2 3.9 7.3-2.9 0-7.8-1.5-13.5-4.5-16.8-1.3-1.4-2.3-3.7-2.3-5.2 0-1.6-.8-3-2-3.7-1.2-.6-2-2.1-2-3.5s-.8-2.9-1.9-3.5c-2.8-1.5-3.3-1.3-2.1.9 1.4 2.8 1.3 3.1-1.3 3.1s-5.7 2.8-5.7 5.1c0 .8.7 2.3 1.5 3.3 2 2.6 1.9 7.6-.1 10.4-1.9 2.7-3.6 1.9-2.8-1.3.5-2 .1-2.7-2-3.7-2.5-1.1-3-.8-7.6 3.7-2.8 2.7-5 4.6-5 4.3 0-.3 1.4-3.2 3-6.3 3.8-7.2 3.8-8.9-.1-15.1-1.9-2.9-3.1-6.1-3.1-7.9.1-1.7-.3-6.8-.9-11.4-1.1-9.5-.4-11.6 3-8.2 1.8 1.8 2 2.9 1.5 5.7-.7 4.1.7 5.7 4.2 4.8 1.2-.3 2.6.1 3.4 1.1 2.3 2.7 11.4 8.2 16.7 10 3.7 1.3 6.5 1.5 11.8.9 5.3-.5 6.5-.9 4.8-1.5-1.2-.4-2.2-1.6-2.2-2.6 0-4.4-.9-8.2-2.4-10.4-4.2-5.9-.1-7.3 5.7-1.9 2.4 2.2 4.6 4 4.8 4 .3 0 .8-2.2 1.2-4.9.7-5.3 1.7-6.6 5.8-7.6 3.1-.8 3.2-.4 4.3 9.8.5 4.5.3 6.4-1 8.3-1.5 2.4-1.5 2.4.3 1.3 3.2-2 5.1-6.3 6.2-14 .7-4.8 1.9-8.7 3.5-11.1 1.4-2.1 2.5-4.4 2.5-5.2 0-1.6-2.8-4.1-3.7-3.3-.9 1-4.3-1.2-4.3-2.8 0-2.7-2.2-6.3-4.7-7.4-3.2-1.5-5.1-1.4-3 .1 1.3 1 1.7 3.2 1.9 9.8l.3 8.5-5-.3c-5.4-.4-7.9-1.7-5.6-3.1.9-.6 1-1.4.3-2.7-.5-1.1-.8-2.8-.6-3.9.1-1.1-.3-2.6-.9-3.5-3.1-3.8-4.7-7.8-3.5-8.3.9-.4.8-.6-.2-.6-8.4-.5-18.6-2.3-20-3.6-.9-.8-2.2-1.5-2.8-1.5-.7 0-1.2-.5-1.2-1 0-.6-.9-2.1-2.1-3.3-4.2-4.4-4.2-5.2.4-9.7 4.8-4.9 9.1-7 14.2-7 3 0 4.5.9 9.3 5.6 3.1 3.2 7.1 6.3 8.8 7 3.7 1.6 5 3 6 6.8.6 2.4 1 2.7 3.5 2.2 2.4-.5 3-.2 3.5 1.9.8 3.4 2 3.1 2.8-.5.3-1.9 1.4-3.4 2.9-3.9 2.9-1.1 3.9-4.3 2.6-7.9-.6-1.6-.6-2.9 0-3.5.5-.5.7-1.6.4-2.4-.3-.8 0-1.8.7-2.3.9-.6.9-1.3.1-2.8-.6-1.1-1.1-3-1.1-4.2 0-1.7.5-2.1 2.5-1.8 1.3.2 2.3 0 2.2-.4-.1-.4.9-1.5 2.2-2.4 3.4-2.4 4.4-.1 1.9 4.2-1.3 2.3-2.5 3.1-3.6 2.7-1.5-.4-1.5-.3-.2.6 1.2.8 2.2.3 4.8-2.4 2.8-2.9 3.3-3.9 2.7-6.5-.9-4-3-5-11.8-5.5-8.5-.5-14.7-1.4-14.7-2.3 0-.3.7-1.4 1.7-2.4.9-1 1.1-1.8.5-1.8-.6 0-1.9 1.1-2.8 2.5-2.1 3.2-9.1 6.5-14 6.5h-3.9l3.7-3.3c4.7-4.1 9-10.9 8.3-12.9-.5-1.2.2-1.8 2.4-2.3 1.6-.3 3.5-1.3 4.1-2 1-1.2.7-1.7-1.5-2.5-1.4-.5-2.4-1.4-2.1-1.9.4-.5-.1-1.6-.9-2.4-.8-.9-1.5-2-1.5-2.5 0-2.2-3.4-2.3-5.1-.1-.9 1.2-2.1 1.9-2.7 1.5-.6-.3-1.4-.1-1.9.6-.5.9-.9.4-1.3-1.6-.3-1.6-1.2-3.2-2-3.6-9-4.2-9.5-4.5-9.2-7.3.2-2.1-.1-2.7-1.8-2.7-2.6 0-6.1-3.5-5.4-5.5.5-1.1.2-1.4-1.2-.9-1.1.4-2.4 1.1-3 1.5-.6.5-1.4.6-1.7.3-.4-.4-1.7 0-2.9.8-1.3.8-3.4 1.7-4.8 2.1l-2.5.6 2.8-2.4c2.5-2.2 2.6-2.5 1-3.4-1-.5-3.4-1.1-5.3-1.5l-3.5-.5.2 5.2c.1 3.7-.1 4.6-.7 3.1-1-2.5-5.9-3.8-6.7-1.8-.3.7.9 3.3 2.6 5.6 3.2 4.4 5.6 10.8 4.1 10.8-.4 0-1.1-1.1-1.4-2.4-.4-1.5-1.4-2.6-2.9-2.8-1.5-.2-2.3-1.1-2.5-2.8-.2-1.4-.8-3-1.4-3.7-.5-.7-.7-1.6-.4-2.1.7-1.2-1.4-7.5-2.8-8.4-1.5-1.1-3.8-1-5.6.2zm36.5 6c-.3.5-1.2 1-1.8 1-.7 0-.6-.4.3-1 1.9-1.2 2.3-1.2 1.5 0zM175 41.5c0 .8-.7 1.5-1.5 1.5s-1.5-.7-1.5-1.5.7-1.5 1.5-1.5 1.5.7 1.5 1.5zM197 52c0 .5-.4 1-1 1-.5 0-1-.5-1-1 0-.6.5-1 1-1 .6 0 1 .4 1 1zm29.1 28.7c1.3 1.6 1.2 1.7-.3.4-1-.7-1.8-1.5-1.8-1.7 0-.8.8-.3 2.1 1.3zm-63.7 43.6c.3 1.2.6 3.1.6 4.1 0 1.8-.1 1.8-2 .1-2.2-2-3.4-5-2.5-6.4.9-1.6 3.2-.2 3.9 2.2zM72 130.9c0 .6-.4 1.3-1 1.6-.5.3-1-.1-1-.9 0-.9.5-1.6 1-1.6.6 0 1 .4 1 .9zm-15.6 20.9c-.9.2-2.1-.2-2.8-.9-.8-.9-.7-1.1.7-.6 1 .4 1.7.1 1.7-.6s.4-.6 1 .3c.7 1.1.5 1.6-.6 1.8zM22.5 155c.3.5-.1 1-.9 1-.9 0-1.6-.5-1.6-1 0-.6.4-1 .9-1 .6 0 1.3.4 1.6 1zm63.1 3.5c-.1.5-.6 1.7-1.1 2.5-.5.8-1 1.8-1 2.2 0 1.2-1.9 1.1-2.3-.1-.2-.6.1-1.1.7-1.1s1.1-.7 1.1-1.6c0-1.3-.3-1.4-1.4-.5-1.2 1-1.4.9-1.1-.6.2-1 .4-1.9.4-2 .3-.9 4.8.3 4.7 1.2zm-78.2 31c-.4.8-1.1 1.5-1.6 1.5-.6 0-.5-.6.2-1.5.7-.8 1.4-1.5 1.6-1.5.2 0 .1.7-.2 1.5zm270.4 5.7c1.9 1.9 1.4 3-.8 1.8-1.1-.6-2-1.5-2-2 0-1.4 1.4-1.2 2.8.2zm-238.9 2.7c.8 1.4.7 2.2-.3 3-1 .8-1.5.5-2.4-1.4-.6-1.4-1.6-2.5-2.2-2.5-1.3 0-4.1 4.4-4.3 6.9-.1 1.4-.5 1.7-1.3 1.1-.6-.6-1.4-.7-1.7-.3-.4.3-.7-.4-.7-1.7 0-1.8.3-2 1.5-1s1.5.7 2.1-1.4c1.1-4.5 7.4-6.3 9.3-2.7zm221.5.4c.8 1.3.5 2.2-1.4 3.9-1.4 1.3-1.9 1.7-1.3.9.9-1 .9-2 .2-3.3-.9-1.6-1.3-1.7-2.7-.6-1.2.9-1.1.6.2-1 2.1-2.5 3.4-2.4 5 .1zm36.6.2c.7.9.8 1.5.2 1.5-.5 0-1.2-.7-1.6-1.5-.3-.8-.4-1.5-.2-1.5s.9.7 1.6 1.5zm-59 1.5c0 .5-.5 1-1.1 1-.5 0-.7-.5-.4-1 .3-.6.8-1 1.1-1 .2 0 .4.4.4 1zm46.7 1.2l2.8 1.1-4 .7c-2.4.5-4.3.4-4.6-.2-.4-.7-.9-.6-1.3.1-.8 1.3-2.6 1.5-2.6.3 0-.7 4.2-2.8 6.2-3.1.4-.1 1.9.4 3.5 1.1zM12.5 204c.3.5.2 1-.4 1-.5 0-1.3-.5-1.6-1-.3-.6-.2-1 .4-1 .5 0 1.3.4 1.6 1zm61.1 1.7c-1 1-1.9-.5-1-1.8.6-1.1.8-1.1 1.2 0 .2.7.1 1.5-.2 1.8zm3.1.3c-.1 1.1-.7 2-1.4 2-1.1 0-1.1-.4-.1-2 .7-1.1 1.4-2 1.5-2 .1 0 .1.9 0 2zM18 208.2c0 .4-.5 1-1.2 1.4-.7.5-.8.3-.3-.6.6-1 .4-1.2-.8-.7-1.2.5-1.7.1-1.7-1.3 0-1.8.3-1.9 2-.8 1.1.7 2 1.6 2 2zm5.2 2.2c.7-.4.8-.2.4.4-.4.6 0 2.8.9 4.8.8 2 1.5 4.9 1.5 6.4 0 2.4-.3 2.7-2.5 2.2-1.6-.3-2.5-1.1-2.5-2.2 0-1.2-1.2-2.2-3.5-3-2.9-1-6.6-4.6-5.3-5.4l3.2-1.6c1.6-.8 3.1-2 3.3-2.7.4-.9.9-.9 2 .2.8.9 1.9 1.2 2.5.9zm220-.2c-.7.7-1.2.8-1.2.2 0-1.4 1.2-2.6 1.9-1.9.2.3-.1 1.1-.7 1.7zm28.8-1.8c0 .3-.4.8-1 1.1-.5.3-1 .1-1-.4 0-.6.5-1.1 1-1.1.6 0 1 .2 1 .4zM33 210c0 .5-.4 1-1 1-.5 0-1-.5-1-1 0-.6.5-1 1-1 .6 0 1 .4 1 1zm45.8 7c.3 6.9-.6 7.2-2.4.9-1-3.4-1-3.9.5-4 1.4-.1 1.4-.2-.1-.6-1.9-.5-2.3-1.5-1.1-2.7 1.7-1.7 2.8.6 3.1 6.4zm170.2-.5c1.4 1.9 1.4 1.9-.2.6-1-.7-1.8-1.8-1.8-2.4 0-.6.1-.8.3-.6.1.2.9 1.3 1.7 2.4zm-186.2 2c-.3.3-.9-.2-1.2-1.2-.6-1.4-.5-1.5.5-.6.7.7 1 1.5.7 1.8zm181.2-.3c0 1.3-2.3.5-2.8-1-.2-.7.2-1 1.2-.6.9.3 1.6 1.1 1.6 1.6zm2.5 4.8c-.9 4.1-1.7 3.3-.9-.9.4-1.7.9-3 1.1-2.7.3.2.2 1.9-.2 3.6zm-5.3 6.2c-.5.7-.6 2.2-.2 3.2.5 1.4.9 1.6 1.4.7.6-.9 1.2-.7 2.3.9.8 1.2 1.3 2.4.9 2.7-.3.3 0 1.1.7 1.9 2.9 3.3 3.7 4.4 3.7 5.4 0 .5.7 1 1.5 1 1.7 0 3.4 2.9 2.8 4.7-.3.7.1 1.3.7 1.3 2.1 0 3.7 2.5 3.5 5.5-.4 5.7-1.7 11.5-2.6 11.5-.5 0-.9.7-.9 1.5s-.7 1.5-1.6 1.5c-1 0-1.4-.6-1-1.5.3-.8.1-1.5-.4-1.5-.6 0-1-.9-1-2 0-1.2-1.6-4.4-3.6-7.3-2.4-3.5-3.4-4.4-2.9-2.7.6 2.4.5 2.4-.9.6-.9-1.1-1.9-3.6-2.2-5.5-.9-5.1-2.3-7.4-2.4-3.9 0 3.1-2 3.7-4 1.3-1-1.1-.9-1.8.4-3 1.8-1.8 2.1-2.9.6-2-.5.3-1 .2-1-.4 0-2-6.2-8.1-8.3-8.1-1.6 0-1.8-.3-.9-1.2 1-1 1.9-1 4.4 0 1.7.6 3.4.9 3.7.5.3-.3 0-.8-.7-1-.7-.3.6-1.5 3-2.9 4.8-2.6 6.5-3 5-1.2zm-164.8 5.9c1-1.6 2.6-1.3 2.6.4 0 .8.6 2.4 1.2 3.5 1.8 2.9-.1 5.5-4.1 5.5-2.3.1-3-.3-2.6-1.3.3-.7.5-3.2.5-5.5 0-2.7.3-3.7.9-2.8.6.9 1.1 1 1.5.2zm4.3 1.1c-.3.8-.6.5-.6-.6-.1-1.1.2-1.7.5-1.3.3.3.4 1.2.1 1.9zm-20 1.3c.9 2.4-.1 2.7-1.5.5-.8-1.3-.8-2-.2-2 .6 0 1.3.7 1.7 1.5zM52 243c0 .5-.5 1-1.1 1-.5 0-.7-.5-.4-1 .3-.6.8-1 1.1-1 .2 0 .4.4.4 1zm228.6-.1c-.4.5 0 1.2.6 1.5.7.4.2.4-1.2.2-2.3-.5-2.3-.4-.7.8 1.6 1.2 1.4 1.4-1.8 1.8-1.9.2-3.5.3-3.5.2 0-.1 1-1.4 2.3-2.8 2-2.4 5.5-3.7 4.3-1.7zm-12.1 9.1c-.3.5-1.4.6-2.5.3s-1.8-.9-1.5-1.3c.3-.5 1.4-.6 2.5-.3s1.8.9 1.5 1.3zM72 252c0 .5-.5 1-1.1 1-.5 0-.7-.5-.4-1 .3-.6.8-1 1.1-1 .2 0 .4.4.4 1zm150.5 9.2c7.4 7.6 13.8 15.5 17.6 21.8 2.3 3.9 4 8.2 2.9 7.5-.5-.3-1.8-2.5-2.8-4.8-1-2.3-2.6-4.8-3.5-5.6-1-.7-1.7-2-1.7-2.7 0-.8-.4-1.4-.9-1.4s-1.2-.8-1.6-1.9c-.3-1-5.4-6.7-11.3-12.6-5.9-6-9.8-10.3-8.7-9.7 1.1.6 5.6 4.8 10 9.4zm15.1-3.5c-.4 3.2-1.3 6.5-2.1 7.3-.8.8-1.5 1-1.6.5-.3-4.9-.8-8.4-1.4-10.8-.7-2.5-.5-2.7 2.5-2.7h3.3l-.7 5.7zm-209.8 1.2C33 263 43 277.2 43 280.4c0 1.4-6.7 4.6-9.4 4.6-2 0-9.8-9.1-9.2-10.6.6-1.6-4.6-12.5-6.7-14.3-1.3-1-1.4-1.7-.5-3.1 1.6-2.4 6.1-1.6 10.6 1.9zm151.4 1.6c.3 1.4.3 2.5 0 2.5-1.2 0-5.2-5.2-4.7-6.1 1-1.6 4.2.9 4.7 3.6zm3.8 12.6c0 .6-.4.7-1 .4-.5-.3-1-1.1-1-1.6 0-.6.5-.7 1-.4.6.3 1 1.1 1 1.6zm75.3 4.1c2 7.7 2.8 11.6 2.6 12.4 0 .4.5 1.1 1.3 1.5.9.6.7.9-.9.9-1.2 0-2.5-.5-2.9-1.2-.4-.7-.3-.8.4-.4s1.2.3 1.2-.2-1.3-1.5-3-2.2c-1.6-.7-3-1.6-3-2.1s-1.2-1-2.7-1c-2.4-.2-2.5-.2-.5-.6 1.2-.2 2.2-1 2.2-1.7 0-.8.3-2.9.7-4.7.6-3.1.5-3.3-1-2-2.4 2-2.2-.4.3-2.9 1.1-1.1 2.4-2 2.9-2s1.6 2.8 2.4 6.2zm5.2 9.8c.3.5.1 1-.4 1-.6 0-1.1-.5-1.1-1 0-.6.2-1 .4-1 .3 0 .8.4 1.1 1zm-18.5 6.5c1.1 1.3 1 1.4-.4.9-.9-.3-1.6-1-1.6-1.5 0-1.3.6-1.1 2 .6zm7.4 3.1c.3.8.2 1.2-.4.9-.6-.3-1-1-1-1.6 0-1.4.7-1.1 1.4.7z"/><path d="M236.4 246.1c-.3.6-.1 1.6.4 2.1.8.8 1.1.5.9-1.1-.1-2.4-.3-2.5-1.3-1zM244.8 247.8c-.8 2.8.6 4.6 2.5 3.6 1.4-.8 1.4-1.2-.2-3.3-1.7-2.3-1.8-2.3-2.3-.3zM255 259.5c0 .8.2 1.5.4 1.5s.6-.7 1-1.5c.3-.8.1-1.5-.4-1.5-.6 0-1 .7-1 1.5zM77 241c0 .5.5 1 1 1 .6 0 1-.5 1-1 0-.6-.4-1-1-1-.5 0-1 .4-1 1zM155 15.5c0 .8.2 1.5.4 1.5s.6-.7 1-1.5c.3-.8.1-1.5-.4-1.5-.6 0-1 .7-1 1.5zM220.7 39.1c.4 1.3.9 1.7 1.5 1.1 1.1-1.1.3-3.2-1.2-3.2-.4 0-.6.9-.3 2.1zM225.8 38.7c.7.3 1.6.2 1.9-.1.4-.3-.2-.6-1.3-.5-1.1 0-1.4.3-.6.6zM247.4 70c0 1.1.4 2 .8 2s.8-.9.8-2-.4-2-.8-2-.8.9-.8 2zM237.8 89.2c1.7 1.7 1.5 4.8-.5 7-1.1 1.2-1.2 1.8-.4 1.8.7 0 2.1 1 3.2 2.2l1.9 2.3-.6-2.8c-.5-2.4-.3-2.7 1.9-2.7 4 0 4.7-3.8 1.3-6.7-2.8-2.4-9.1-3.4-6.8-1.1zM243 93c0 .5-.7 1-1.6 1-.8 0-1.2-.5-.9-1 .3-.6 1-1 1.6-1 .5 0 .9.4.9 1zM297.2 107c-1.6 2.5-1.5 3 .3 3 .9 0 1.2.6.9 1.5-.4.8-.2 1.5.3 1.5s1-1.8 1.1-4c.3-4.4-.6-5.1-2.6-2zM234.7 108c.3 1.1.9 1.7 1.4 1.4 1.4-.8 1-3.4-.5-3.4-.9 0-1.2.7-.9 2zM296.3 115.7c0 .8.6 1.2 1.3.9.7-.3 1.5 0 1.8.7.2.7.5.5.5-.4.1-.9-.7-1.9-1.7-2.1-1.2-.3-1.9 0-1.9.9zM26 130.1c0 .7-.8 1.8-1.7 2.6-1.7 1.4-1.7 1.4 0 .9.9-.3 1.7-.1 1.7.4 0 .6.4 1 .9 1s.9-1.4.9-3c-.1-2.7-1.8-4.5-1.8-1.9zM234.6 140.5c-1.7 1.3-1.7 1.7-.5 3.2 1.5 1.8 1.4 1.8-3.8-.4-.7-.3-1.3 0-1.3.6s.5 1.1 1 1.1c.7 0 .7.6.1 1.7-.5 1-.7 3.5-.6 5.6.2 2.6 0 3.7-.8 3.4-1.1-.4-1.3 6.5-.7 21.4 0 .4 1.9.3 4.3-.2 5.5-1.1 5.9-1.1 5.3 0-.9 1.4 4.9 2.1 8.4 1.1 1.8-.5 7.3-1.2 12.4-1.5 11.1-.6 30.9-2.3 35.2-3l3.1-.5-.8 4.6c-.5 2.6-.7 5-.4 5.2.3.3.5-.1.5-.9s.9-2 2-2.7c1.9-1.1 2-2.3 2-17.7 0-13.7-.2-16.5-1.4-16.5-.8 0-1.8.4-2.1 1-1.1 1.7-3.5 1.2-2.8-.7.4-1.1.3-1.4-.5-.9-.7.4-1.4-.2-1.7-1.6-.4-1.6-1.4-2.3-3.1-2.4-2.3-.2-2.4-.1-.7 1.3 1.5 1.2 1.5 1.4.2 1-1.1-.4-2.1.4-2.9 2.1-.7 1.5-1.6 3.4-2 4.2-.4.8-1.9 1.6-3.4 1.8-2.2.3-2.6 0-2.6-2.2 0-2.3-.4-2.5-3-2.2-1.6.2-4-.2-5.3-.9-3.7-1.9-5.6-1.5-5.4 1.3.1 1.4-.4 2.7-1.1 2.9-.8.3-1-.1-.5-1.2.5-1.4.2-1.6-1.5-1-1.6.5-2.2.2-2.2-.9 0-.9-.5-1.6-1.1-1.6-.6 0-.8.7-.5 1.6.4 1 .2 1.3-.6.8s-.9-.2-.5.9c.8 2.1-.6 2.2-2.3.2-.7-.8-1.7-1.5-2.2-1.5-.5 0-1.6-.7-2.5-1.5-.8-.8-1.8-1.3-2.2-1-.5.2-2.3-.9-4.1-2.5-3.8-3.4-4.7-3.5-7.4-1.5zm5.4 2.5c0 .5-.7.7-1.5.4-.8-.4-1.5-.8-1.5-1 0-.2.7-.4 1.5-.4s1.5.4 1.5 1zm49 3.6c0 1.4-.3 1.4-1.5.4-.8-.7-1.5-1.4-1.5-1.6 0-.2.7-.4 1.5-.4s1.5.7 1.5 1.6zm-36.5 6.4c.7 2.1.6 2.3-.7 1.3-.8-.7-1.8-1-2.1-.6-.4.3-.7.1-.7-.5 0-.7.5-1.2 1-1.2.6 0 1-.5 1-1.1 0-.5-.4-.7-1-.4-.5.3-1-.2-1-1.2 0-1.5.2-1.5 1.4-.3.8.8 1.7 2.6 2.1 4zm6.4 4.6c.2.2-.3.4-1.3.4-1.3 0-1.5.4-.7 1.9 1.3 2.3-1.6 5.5-3.8 4.2-.9-.6-1-1.1-.2-1.5 1.9-1.2 1.2-2.7-1.1-2.4-1.1.2-2.3-.3-2.5-1-.3-.7.4-1.2 1.6-1.2 1.2 0 2.1-.5 2.1-1 0-.9 4.7-.4 5.9.6z"/><path d="M278.8 149.7c.7.3 1.6.2 1.9-.1.4-.3-.2-.6-1.3-.5-1.1 0-1.4.3-.6.6zM229.5 191c-.3.5-.2 1 .4 1 .5 0 1.3-.5 1.6-1 .3-.6.2-1-.4-1-.5 0-1.3.4-1.6 1zM171 201c0 .5.5 1 1.1 1 .5 0 .7-.5.4-1-.3-.6-.8-1-1.1-1-.2 0-.4.4-.4 1zM63.5 211c-.3.5.1 1 1 1s1.3-.5 1-1c-.3-.6-.8-1-1-1-.2 0-.7.4-1 1zM70 219.6c0 1.3 1.8 3.9 2.4 3.4.2-.3-.2-1.4-1-2.4-.8-1.1-1.4-1.6-1.4-1zM71.5 225c-.3.5-.1 1 .4 1 .6 0 1.1-.5 1.1-1 0-.6-.2-1-.4-1-.3 0-.8.4-1.1 1zM180 234.4c0 .3.4 1.4.9 2.4.5.9 1.5 3 2.2 4.6 2.4 5.1 3.3 6.6 4.2 6.6.4 0 .6-.4.2-1-.3-.5 0-1.9.7-3.1 1-1.7 1-2.3.1-2.6-.7-.3-1.3-1.2-1.3-2 0-.9-.6-1.3-1.5-1-.8.4-2.3-.5-3.5-2-1.1-1.4-2-2.3-2-1.9zM184.6 250.9c-.3.5.1 1.4.9 2.1 1.2 1 1.5 1 1.5-.3 0-1.9-1.6-3.1-2.4-1.8zM195 265.5c.1 2.6.2 2.8 1.1 1.2.8-1.4.8-2.2 0-3-.8-.8-1.1-.3-1.1 1.8z"/></svg>